<?xml version="1.0" standalone="no"?><!DOCTYPE svg PUBLIC "-//W3C//DTD SVG 1.1//EN" "http://www.w3.org/Graphics/SVG/1.1/DTD/svg11.dtd"><svg class="icon" width="200px" height="200.00px" viewBox="0 0 1024 1024" version="1.1" xmlns="http://www.w3.org/2000/svg"><path d="M498.688 647.68l-1.024-458.752c-0.512-10.24 7.68-18.944 17.92-19.456 10.24-0.512 18.944 7.68 19.456 17.92l1.024 458.752"  /><path d="M522.752 957.952c-62.976 0-123.392-12.288-180.736-36.352-55.296-23.552-104.96-56.832-147.968-99.84-42.496-42.496-76.288-92.16-99.84-147.968-24.064-57.344-36.352-118.272-36.352-180.736 0-62.976 12.288-123.392 36.352-180.736C117.76 256.512 151.552 206.848 194.048 164.352s92.16-76.288 147.968-99.84c57.344-24.064 117.76-36.352 180.736-36.352s123.392 12.288 180.736 36.352c55.296 23.552 104.96 56.832 147.968 99.84 42.496 42.496 76.288 92.16 99.84 147.968 24.064 57.344 36.352 118.272 36.352 180.736 0 62.976-12.288 123.392-36.352 180.736-23.552 55.296-56.832 104.96-99.84 147.968-42.496 42.496-92.16 76.288-147.968 99.84-56.832 24.064-117.76 36.352-180.736 36.352z m0-892.416c-57.856 0-113.664 11.264-166.4 33.792-50.688 21.504-96.768 52.224-135.68 91.648S150.528 275.968 129.024 326.656c-22.528 52.736-33.792 108.544-33.792 166.4s11.264 113.664 33.792 166.4c21.504 50.688 52.224 96.768 91.648 135.68 39.424 39.424 84.992 70.144 135.68 91.648 52.736 22.528 108.544 33.792 166.4 33.792s113.664-11.264 166.4-33.792c50.688-21.504 96.768-52.224 135.68-91.648 39.424-39.424 70.144-84.992 91.648-135.68 22.528-52.736 33.792-108.544 33.792-166.4s-11.264-113.664-33.792-166.4c-21.504-50.688-52.224-96.768-91.648-135.68-39.424-39.424-84.992-70.144-135.68-91.648-52.736-22.528-108.544-33.792-166.4-33.792z"  /><path d="M497.664 709.632h38.912v95.744h-38.912z"  /></svg>