<?xml version="1.0" standalone="no"?><!DOCTYPE svg PUBLIC "-//W3C//DTD SVG 1.1//EN" "http://www.w3.org/Graphics/SVG/1.1/DTD/svg11.dtd"><svg t="1545650908492" class="icon" style="" viewBox="0 0 1024 1024" version="1.1" xmlns="http://www.w3.org/2000/svg" p-id="4320" xmlns:xlink="http://www.w3.org/1999/xlink" width="200" height="200"><defs><style type="text/css"></style></defs><path d="M660.518057 682.870646c-5.903453 0-11.803837-2.201132-16.306384-6.702656L342.36602 374.372479c-9.003048-9.003048-9.003048-23.608697 0-32.610722s23.607674-9.002025 32.610722 0l301.846676 301.796534c9.002025 9.003048 9.002025 23.606651 0 32.609699C672.321894 680.668491 666.419464 682.870646 660.518057 682.870646zM358.670357 682.870646c-5.901407 0-11.803837-2.201132-16.304338-6.702656-9.003048-9.003048-9.003048-23.606651 0-32.609699l301.845653-301.796534c9.003048-9.002025 23.607674-9.002025 32.610722 0 9.002025 9.002025 9.002025 23.607674 0 32.610722L374.976742 676.16799C370.474194 680.668491 364.572788 682.870646 358.670357 682.870646zM509.619278 956.156846c-246.577908 0-447.243137-200.614064-447.243137-447.242114 0-246.579955 200.664206-447.217554 447.243137-447.217554 246.578931 0 447.243137 200.6376 447.243137 447.217554C956.861392 755.542782 756.19821 956.156846 509.619278 956.156846zM509.619278 107.811448c-221.171262 0-401.128867 179.933045-401.128867 401.104307 0 221.169215 179.957605 401.127843 401.128867 401.127843 221.170239 0 401.127843-179.958628 401.127843-401.127843C910.747121 287.744493 730.789517 107.811448 509.619278 107.811448z" p-id="4321"></path></svg>