<?xml version="1.0" standalone="no"?><!DOCTYPE svg PUBLIC "-//W3C//DTD SVG 1.1//EN" "http://www.w3.org/Graphics/SVG/1.1/DTD/svg11.dtd"><svg t="1553677172899" class="icon" style="" viewBox="0 0 1024 1024" version="1.1" xmlns="http://www.w3.org/2000/svg" p-id="1636" xmlns:xlink="http://www.w3.org/1999/xlink" width="32" height="32"><defs><style type="text/css"></style></defs><path d="M564.512821 693.169231v57.764102c0 28.882051-18.379487 47.261538-44.635898 47.261539-23.630769 0-44.635897-18.379487-44.635897-47.261539v-112.902564c0-13.128205-2.625641-18.379487-15.753847-21.005128-26.25641-2.625641-49.887179-7.876923-76.143589-13.128205-13.128205-2.625641-18.379487 0-23.630769 13.128205-18.379487 44.635897-39.384615 86.646154-60.389744 131.282051-13.128205 31.507692-39.384615 42.010256-63.015385 28.882052-23.630769-10.502564-31.507692-36.758974-18.379487-65.641026 18.379487-42.010256 39.384615-84.020513 57.764103-126.030769 5.251282-10.502564 5.251282-15.753846-7.876923-23.63077-49.887179-28.882051-49.887179-28.882051-91.897436 13.128206l-65.641026 65.641025c-23.630769 23.630769-47.261538 23.630769-68.266667 5.251282-15.753846-21.005128-15.753846-44.635897 7.876923-68.266666 31.507692-31.507692 63.015385-60.389744 91.897436-94.523077 7.876923-10.502564 7.876923-15.753846 0-23.63077-34.133333-36.758974-63.015385-78.769231-81.394871-128.65641-10.502564-28.882051-2.625641-55.138462 23.630769-63.015384 23.630769-10.502564 47.261538 2.625641 57.764102 31.507692 39.384615 91.897436 107.651282 149.661538 194.297436 191.671795 102.4 49.887179 207.425641 55.138462 312.451282 18.379487 107.651282-36.758974 194.297436-102.4 238.933334-212.676923 13.128205-31.507692 39.384615-42.010256 65.641025-28.882051 21.005128 10.502564 28.882051 34.133333 18.379487 60.389743-18.379487 47.261538-44.635897 89.271795-78.76923 126.030769-10.502564 10.502564-7.876923 15.753846 0 28.882052 28.882051 34.133333 60.389744 63.015385 91.897436 94.523077 21.005128 21.005128 21.005128 47.261538 2.625641 65.641025-18.379487 18.379487-44.635897 15.753846-65.641026-5.251282l-97.148718-97.148718c-7.876923-7.876923-13.128205-10.502564-26.25641-2.625641-15.753846 10.502564-44.635897 18.379487-49.88718 34.133334-5.251282 15.753846 13.128205 36.758974 21.005129 55.138461 13.128205 28.882051 28.882051 57.764103 42.010256 86.646154 10.502564 26.25641 2.625641 49.887179-18.379487 63.015385-23.630769 10.502564-49.887179 2.625641-60.389744-23.63077-21.005128-44.635897-42.010256-89.271795-60.389743-133.907692-5.251282-13.128205-13.128205-18.379487-28.882052-15.753846-21.005128 5.251282-42.010256 7.876923-63.015384 13.128205-10.502564 2.625641-13.128205 5.251282-13.128205 15.753846-2.625641 21.005128-2.625641 39.384615-2.625641 60.389744z" p-id="1637"></path></svg>