<?xml version="1.0" standalone="no"?><!DOCTYPE svg PUBLIC "-//W3C//DTD SVG 1.1//EN" "http://www.w3.org/Graphics/SVG/1.1/DTD/svg11.dtd"><svg t="1553677167132" class="icon" style="" viewBox="0 0 1024 1024" version="1.1" xmlns="http://www.w3.org/2000/svg" p-id="1522" xmlns:xlink="http://www.w3.org/1999/xlink" width="32" height="32"><defs><style type="text/css"></style></defs><path d="M388.594872 204.8c84.020513-21.005128 170.666667-21.005128 254.687179 0 162.789744 39.384615 283.569231 139.158974 362.338462 301.948718 7.876923 15.753846 5.251282 28.882051 0 42.010256-99.774359 204.8-262.564103 317.702564-490.994872 315.076923C288.820513 863.835897 126.030769 750.933333 26.25641 546.133333c-7.876923-13.128205-7.876923-26.25641 0-42.010256 78.769231-160.164103 202.174359-259.938462 362.338462-299.323077z m131.282051 97.148718c-126.030769 0-225.805128 99.774359-228.430769 223.179487 0 126.030769 97.148718 228.430769 223.179487 228.430769s228.430769-97.148718 228.430769-223.179487c2.625641-126.030769-97.148718-228.430769-223.179487-228.430769z" p-id="1523"></path><path d="M512 661.661538c-76.14359-2.625641-133.907692-63.015385-131.282051-139.158974 2.625641-76.14359 65.641026-136.533333 139.158974-133.907692 76.14359 2.625641 133.907692 63.015385 131.282051 139.158974 0 78.769231-63.015385 136.533333-139.158974 133.907692z" p-id="1524"></path></svg>